<svg id="Layer_1" data-name="Layer 1" xmlns="http://www.w3.org/2000/svg" viewBox="0 0 216 216"><defs><style>.cls-1{fill:#fff;}.cls-2{fill:#b1b3b6;}</style></defs><title>Artboard 2</title><polygon class="cls-1" points="190.36 84.32 173.7 84.32 172.73 84.32 172.31 85.19 160.22 110.34 148.1 85.19 147.69 84.32 146.72 84.32 130.63 84.32 129.09 84.32 129.09 85.85 129.09 94.43 129.09 95.96 130.63 95.96 133.38 95.96 133.38 131.97 130.4 131.97 128.86 131.97 128.86 133.51 128.86 142.08 128.86 143.62 130.4 143.62 148.48 143.62 150.02 143.62 150.02 142.08 150.02 133.51 150.02 131.97 148.48 131.97 145.35 131.97 145.35 106.42 158.86 134.28 160.23 137.12 161.62 134.28 175.27 106.36 175.27 131.97 172.28 131.97 170.74 131.97 170.74 133.51 170.74 142.08 170.74 143.62 172.28 143.62 190.36 143.62 191.9 143.62 191.9 142.08 191.9 133.51 191.9 131.97 190.36 131.97 187.25 131.97 187.25 95.96 190.36 95.96 191.9 95.96 191.9 94.43 191.9 85.85 191.9 84.32 190.36 84.32"/><path class="cls-1" d="M86.9,131.94v11.64H64.08V131.94h3.51l-2.6-6H46.18l-2.6,6h3.33v11.64H24.1V131.94h6.5L46.24,95.77H42.78V84.11H67.94V95.77h-3l15.65,36.18H86.9ZM55.58,104.16l-4.37,10.11H60Z"/><polygon class="cls-1" points="171.23 39.11 44.36 39.11 42.6 39.11 42.6 40.86 42.6 74.75 42.6 76.51 44.36 76.51 66.27 76.51 68.01 76.51 68.01 74.75 68.01 62.16 95.08 62.16 95.08 151.49 82.49 151.49 80.74 151.49 80.74 153.24 80.74 175.14 80.74 176.89 82.49 176.89 133.08 176.89 134.85 176.89 134.85 175.14 134.85 153.24 134.85 151.49 133.08 151.49 120.51 151.49 120.51 62.16 147.41 62.16 147.41 74.59 147.41 76.35 149.17 76.35 171.23 76.35 172.98 76.35 172.98 74.59 172.98 40.86 172.98 39.11 171.23 39.11"/><polygon class="cls-2" points="124.15 162.01 129.51 156.5 129.51 171.65 124.15 166.51 124.15 162.01"/><polygon class="cls-2" points="115.2 156.9 109.84 162.18 109.84 51.63 115.2 56.98 115.2 156.9"/><polygon class="cls-2" points="53.16 49.68 47.63 44.31 165.01 44.31 158.07 49.68 53.16 49.68"/><polygon class="cls-2" points="167.85 71.46 162.49 66.34 162.49 52.69 167.85 47.16 167.85 71.46"/><path class="cls-1" d="M140.77,171.62a5.2,5.2,0,1,1,5.2,5.2A5.21,5.21,0,0,1,140.77,171.62Zm9.14,0a3.94,3.94,0,1,0-3.94,4.19A4,4,0,0,0,149.91,171.62Zm-5.94-3h2.19c1.41,0,2.17.5,2.17,1.73A1.47,1.47,0,0,1,146.8,172l1.59,2.58h-1.12L145.73,172h-.66v2.54H144Zm1.1,2.52h1c.65,0,1.21-.08,1.21-.87s-.63-.81-1.19-.81h-1Z"/></svg>